<svg width="160" height="160" viewBox="0 0 160 160" fill="none" xmlns="http://www.w3.org/2000/svg">
<mask id="mask0" mask-type="alpha" maskUnits="userSpaceOnUse" x="0" y="0" width="160" height="160">
<mask id="path-1-inside-1" mask-type="luminance" fill="white">
<path d="M160 80C160 124.183 124.183 160 80 160C35.8172 160 0 124.183 0 80C0 35.8172 35.8172 0 80 0C124.183 0 160 35.8172 160 80ZM60.8 80C60.8 90.6039 69.3961 99.2 80 99.2C90.6039 99.2 99.2 90.6039 99.2 80C99.2 69.3961 90.6039 60.8 80 60.8C69.3961 60.8 60.8 69.3961 60.8 80Z"/>
</mask>
<path d="M160 80C160 124.183 124.183 160 80 160C35.8172 160 0 124.183 0 80C0 35.8172 35.8172 0 80 0C124.183 0 160 35.8172 160 80ZM60.8 80C60.8 90.6039 69.3961 99.2 80 99.2C90.6039 99.2 99.2 90.6039 99.2 80C99.2 69.3961 90.6039 60.8 80 60.8C69.3961 60.8 60.8 69.3961 60.8 80Z" fill="#F3E2D8" stroke="#3F3D43" stroke-width="16" mask="url(#path-1-inside-1)"/>
</mask>
<g mask="url(#mask0)">
<path fill-rule="evenodd" clip-rule="evenodd" d="M98.9828 157.734C92.8979 159.215 86.5406 160 80 160C35.8172 160 0 124.183 0 80C0 35.8172 35.8172 0 80 0C91.019 0 101.518 2.22778 111.07 6.25751C102.589 11.9019 97 21.5483 97 32.5C97 35.9897 97.5675 39.3469 98.6152 42.4843C90.7653 47.1874 83.9582 53.4519 78.6232 60.8486C68.6619 61.5544 60.8 69.8591 60.8 80C60.8 85.2462 62.9041 90.001 66.3145 93.4665C66.1065 95.6162 66 97.7957 66 100C66 124.585 79.242 146.078 98.9828 157.734Z" fill="url(#paint0_radial)"/>
<g style="mix-blend-mode:multiply">
<path fill-rule="evenodd" clip-rule="evenodd" d="M88.0326 149.669C79.8717 152.476 71.1138 154 62 154C17.8172 154 -18 118.183 -18 74C-18 29.8172 17.8172 -6 62 -6C79.1344 -6 95.0106 -0.613299 108.028 8.55902C101.278 14.3364 97 22.9186 97 32.5C97 35.9897 97.5675 39.3469 98.6152 42.4843C90.165 47.5471 82.9231 54.4192 77.4252 62.5654C73.9264 57.8534 68.3198 54.8 62 54.8C51.3961 54.8 42.8 63.3961 42.8 74C42.8 84.6039 51.3961 93.2 62 93.2C63.5117 93.2 64.9826 93.0253 66.3937 92.695C66.1335 95.0942 66 97.5315 66 100C66 119.698 74.5002 137.41 88.0326 149.669Z" fill="url(#paint1_radial)"/>
</g>
</g>
<path fill-rule="evenodd" clip-rule="evenodd" d="M98.9828 157.734C92.8979 159.215 86.5406 160 80 160C35.8172 160 0 124.183 0 80C0 35.8172 35.8172 0 80 0C91.019 0 101.518 2.22778 111.07 6.25751C108.566 7.92394 106.314 9.93921 104.384 12.2339C96.7691 9.49342 88.5589 8 80 8C40.2355 8 8 40.2355 8 80C8 119.765 40.2355 152 80 152C83.3678 152 86.6817 151.769 89.9265 151.321C92.7555 153.698 95.7838 155.845 98.9828 157.734ZM84.9978 53.2582C83.3778 52.9573 81.7073 52.8 80 52.8C64.9779 52.8 52.8 64.9779 52.8 80C52.8 89.9367 58.1283 98.6288 66.0835 103.375C66.0281 102.257 66 101.132 66 100C66 97.7957 66.1065 95.6162 66.3145 93.4665C62.9041 90.001 60.8 85.2462 60.8 80C60.8 69.8591 68.6619 61.5544 78.6232 60.8486C80.5608 58.1623 82.6925 55.6253 84.9978 53.2582Z" fill="#3F3D43"/>
<mask id="mask1" mask-type="alpha" maskUnits="userSpaceOnUse" x="-1" y="-1" width="121" height="162">
<g style="mix-blend-mode:multiply">
<path fill-rule="evenodd" clip-rule="evenodd" d="M98.9618 157.722C97.7849 158.008 96.596 158.269 95.3956 158.505C52.0387 167.007 9.99809 138.753 1.49533 95.3956C-7.00742 52.0387 21.2474 9.99815 64.6044 1.49539C84.0957 -2.32708 103.321 1.27921 119.353 10.3467C109.006 14.9141 102.819 26.176 105.087 37.7407C105.167 38.1485 105.257 38.552 105.356 38.9509C94.6419 43.81 85.4339 51.4064 78.6241 60.8474C77.8549 60.9036 77.0809 61.0067 76.305 61.1589C65.8994 63.1996 59.1182 73.2893 61.1588 83.695C61.9116 87.5331 63.7594 90.8782 66.3142 93.4693C66.1064 95.6181 66 97.7966 66 100C66 124.577 79.2326 146.063 98.9618 157.722Z" fill="url(#paint2_radial)"/>
</g>
</mask>
<g mask="url(#mask1)">
<line x1="123.657" y1="56" x2="134.971" y2="67.3137" stroke="#FFFEEC" stroke-width="8" stroke-linecap="round" stroke-linejoin="round"/>
<line x1="113.327" y1="116.097" x2="125.097" y2="121.673" stroke="#9182B2" stroke-width="8" stroke-linecap="round" stroke-linejoin="round"/>
<line x1="114.613" y1="28.6267" x2="102.627" y2="43.387" stroke="#FFFEEC" stroke-width="8" stroke-linecap="round" stroke-linejoin="round"/>
<line x1="27" y1="106" x2="44" y2="106" stroke="#FFFEEC" stroke-width="8" stroke-linecap="round" stroke-linejoin="round"/>
<line x1="86.677" y1="123.648" x2="73.6182" y2="135.294" stroke="#B69EAF" stroke-width="8" stroke-linecap="round" stroke-linejoin="round"/>
<path d="M49 90L32 84.9911" stroke="#B69EAF" stroke-width="8" stroke-linecap="round" stroke-linejoin="round"/>
<line x1="121.287" y1="84.6038" x2="118.604" y2="100.684" stroke="#F9989E" stroke-width="8" stroke-linecap="round" stroke-linejoin="round"/>
<line x1="47.2462" y1="56.6064" x2="36.6064" y2="64.7243" stroke="#F9989E" stroke-width="8" stroke-linecap="round" stroke-linejoin="round"/>
</g>
<mask id="mask2" mask-type="alpha" maskUnits="userSpaceOnUse" x="50" y="-1" width="69" height="170">
<path d="M105.5 28.5C107.423 17.6049 115.5 12 119 10.5L111.5 -0.5L50.5 62L68.5 169L116 156C102 152.167 77 140 74 100C71.7125 69.5 99 52 108 46C107 43 104 37 105.5 28.5Z" fill="#EF5DA8"/>
</mask>
<g mask="url(#mask2)">
<mask id="path-15-inside-2" fill="white">
<path fill-rule="evenodd" clip-rule="evenodd" d="M110.89 6.11664C102.421 12.0487 96.8896 22.1161 96.9793 33.4957C97.1218 51.5722 111.396 66.1145 128.861 65.9768C139.619 65.892 149.079 60.2561 154.725 51.7148C153.491 48.5742 152.076 45.5298 150.496 42.595C146.97 51.654 138.467 57.9008 128.797 57.9771C116.008 58.0779 105.089 47.3528 104.979 33.4326C104.896 22.9308 110.994 14.1502 119.485 10.4278C116.717 8.82163 113.847 7.38034 110.89 6.11664Z"/>
</mask>
<path fill-rule="evenodd" clip-rule="evenodd" d="M110.89 6.11664C102.421 12.0487 96.8896 22.1161 96.9793 33.4957C97.1218 51.5722 111.396 66.1145 128.861 65.9768C139.619 65.892 149.079 60.2561 154.725 51.7148C153.491 48.5742 152.076 45.5298 150.496 42.595C146.97 51.654 138.467 57.9008 128.797 57.9771C116.008 58.0779 105.089 47.3528 104.979 33.4326C104.896 22.9308 110.994 14.1502 119.485 10.4278C116.717 8.82163 113.847 7.38034 110.89 6.11664Z" fill="#FCDDEC"/>
<path d="M110.89 6.11664L114.033 -1.24L109.943 -2.98757L106.3 -0.43567L110.89 6.11664ZM154.725 51.7148L161.399 56.1259L163.691 52.6578L162.17 48.7886L154.725 51.7148ZM150.496 42.595L157.539 38.8012L149.323 23.5493L143.04 39.6934L150.496 42.595ZM119.485 10.4278L122.697 17.7546L137.142 11.4224L123.5 3.50794L119.485 10.4278ZM106.3 -0.43567C95.7052 6.9858 88.8688 19.5118 88.9796 33.5587L104.979 33.4326C104.91 24.7204 109.138 17.1115 115.48 12.669L106.3 -0.43567ZM88.9796 33.5587C89.1549 55.7917 106.783 74.1511 128.924 73.9766L128.797 57.9771C116.008 58.0779 105.089 47.3528 104.979 33.4326L88.9796 33.5587ZM128.924 73.9766C142.533 73.8692 154.391 66.7292 161.399 56.1259L148.051 47.3037C143.768 53.783 136.706 57.9147 128.797 57.9771L128.924 73.9766ZM143.452 46.3887C144.882 49.0437 146.162 51.7985 147.279 54.6409L162.17 48.7886C160.819 45.35 159.27 42.0159 157.539 38.8012L143.452 46.3887ZM128.861 65.9768C142.031 65.873 153.321 57.3923 157.951 45.4965L143.04 39.6934C140.619 45.9157 134.903 49.9287 128.734 49.9773L128.861 65.9768ZM96.9793 33.4957C97.1221 51.5986 111.421 66.1143 128.861 65.9768L128.734 49.9773C120.595 50.0415 113.056 43.1069 112.979 33.3695L96.9793 33.4957ZM116.273 3.10086C104.854 8.1066 96.8712 19.7919 96.9793 33.4957L112.979 33.3695C112.921 26.0697 117.133 20.1939 122.697 17.7546L116.273 3.10086ZM107.746 13.4733C110.402 14.608 112.981 15.903 115.471 17.3476L123.5 3.50794C120.453 1.74026 117.292 0.152739 114.033 -1.24L107.746 13.4733Z" fill="#EED4C8" mask="url(#path-15-inside-2)"/>
<path fill-rule="evenodd" clip-rule="evenodd" d="M109.793 154.261C88.7459 145.247 74 124.346 74 100C74 99.4148 74.0085 98.8315 74.0254 98.2504C71.1091 97.2928 68.4619 95.6474 66.3142 93.4693C66.1064 95.6181 66 97.7966 66 100C66 124.577 79.2326 146.063 98.9618 157.722C102.699 156.813 106.314 155.652 109.793 154.261ZM145.606 34.184C147.763 37.2696 149.713 40.5259 151.433 43.9366C145.634 42.0309 139.437 41 133 41C114.726 41 98.392 49.3081 87.5698 62.3532C84.8154 61.1688 81.761 60.6181 78.6241 60.8474C90.7909 43.9795 110.613 33 133 33C137.309 33 141.523 33.4068 145.606 34.184Z" fill="#EED4C8"/>
</g>
<defs>
<radialGradient id="paint0_radial" cx="0" cy="0" r="1" gradientUnits="userSpaceOnUse" gradientTransform="translate(55.5351 80) rotate(90) scale(80 55.5351)">
<stop stop-color="#FBF3E2"/>
<stop offset="1" stop-color="#FFE6C1"/>
</radialGradient>
<radialGradient id="paint1_radial" cx="0" cy="0" r="1" gradientUnits="userSpaceOnUse" gradientTransform="translate(45.0138 74) rotate(90) scale(80 63.0138)">
<stop stop-color="#EDA5B2"/>
<stop offset="1" stop-color="#F3E2D8"/>
</radialGradient>
<radialGradient id="paint2_radial" cx="0" cy="0" r="1" gradientUnits="userSpaceOnUse" gradientTransform="translate(80 80) rotate(78.9045) scale(80)">
<stop stop-color="#EDA5B2"/>
<stop offset="1" stop-color="#F3E2D8"/>
</radialGradient>
</defs>
</svg>
