<svg width="161" height="160" viewBox="0 0 161 160" fill="none" xmlns="http://www.w3.org/2000/svg">
<mask id="mask0" mask-type="alpha" maskUnits="userSpaceOnUse" x="1" y="0" width="160" height="160">
<mask id="path-1-inside-1" mask-type="luminance" fill="white">
<path d="M161 80C161 124.183 125.183 160 81 160C36.8172 160 1 124.183 1 80C1 35.8172 36.8172 0 81 0C125.183 0 161 35.8172 161 80ZM61.8 80C61.8 90.6039 70.3961 99.2 81 99.2C91.6039 99.2 100.2 90.6039 100.2 80C100.2 69.3961 91.6039 60.8 81 60.8C70.3961 60.8 61.8 69.3961 61.8 80Z"/>
</mask>
<path d="M161 80C161 124.183 125.183 160 81 160C36.8172 160 1 124.183 1 80C1 35.8172 36.8172 0 81 0C125.183 0 161 35.8172 161 80ZM61.8 80C61.8 90.6039 70.3961 99.2 81 99.2C91.6039 99.2 100.2 90.6039 100.2 80C100.2 69.3961 91.6039 60.8 81 60.8C70.3961 60.8 61.8 69.3961 61.8 80Z" fill="#F3E2D8" stroke="#3F3D43" stroke-width="16" mask="url(#path-1-inside-1)"/>
</mask>
<g mask="url(#mask0)">
<path fill-rule="evenodd" clip-rule="evenodd" d="M3.21912 61.2097C11.6722 26.093 43.2889 0 81 0C92.019 0 102.518 2.22778 112.07 6.25751C103.589 11.9019 98 21.5483 98 32.5C98 35.9897 98.5675 39.3469 99.6152 42.4843C91.7653 47.1874 84.9583 53.4519 79.6232 60.8486C73.193 61.3042 67.6376 64.9262 64.5071 70.1646C52.1333 63.0615 37.791 59 22.5 59C15.8668 59 9.41206 59.7643 3.21912 61.2097Z" fill="url(#paint0_radial)"/>
<g style="mix-blend-mode:multiply">
<path fill-rule="evenodd" clip-rule="evenodd" d="M-16.8265 68.6898C-14.0934 26.9827 20.6015 -6 63 -6C80.1344 -6 96.0107 -0.613299 109.028 8.55902C102.278 14.3364 98 22.9186 98 32.5C98 35.9897 98.5675 39.3469 99.6152 42.4843C91.165 47.5471 83.9232 54.4192 78.4252 62.5654C74.9265 57.8534 69.3198 54.8 63 54.8C56.6015 54.8 50.9339 57.93 47.445 62.7423C39.5604 60.3097 31.1832 59 22.5 59C8.30097 59 -5.08012 62.5022 -16.8265 68.6898Z" fill="url(#paint1_radial)"/>
</g>
</g>
<path fill-rule="evenodd" clip-rule="evenodd" d="M11.9141 59.6567C20.6922 29.7985 48.3005 8 81 8C89.559 8 97.7691 9.49342 105.384 12.2339C107.314 9.93921 109.566 7.92394 112.07 6.25751C102.518 2.22778 92.019 0 81 0C43.2889 0 11.6722 26.093 3.21912 61.2097C6.06488 60.5455 8.96591 60.0251 11.9141 59.6567ZM64.5071 70.1646C62.1963 68.8381 59.8169 67.6177 57.3756 66.5101C62.0627 58.3193 70.8868 52.8 81 52.8C82.7073 52.8 84.3778 52.9573 85.9979 53.2582C83.6925 55.6253 81.5608 58.1623 79.6232 60.8486C73.193 61.3042 67.6376 64.9262 64.5071 70.1646Z" fill="#3F3D43"/>
<mask id="mask1" mask-type="alpha" maskUnits="userSpaceOnUse" x="-6" y="-9" width="136" height="91">
<g style="mix-blend-mode:multiply">
<path fill-rule="evenodd" clip-rule="evenodd" d="M3.21806 61.2099C10.3452 31.7878 33.9498 7.70315 65.6044 1.49535C85.0958 -2.32713 104.321 1.27917 120.353 10.3467C110.006 14.9141 103.819 26.176 106.087 37.7407C106.167 38.1485 106.257 38.5519 106.356 38.9509C95.642 43.81 86.4339 51.4063 79.6241 60.8474C78.855 60.9036 78.0809 61.0067 77.3051 61.1589C71.7362 62.251 67.2055 65.6484 64.5095 70.1659C52.1352 63.062 37.792 59 22.5001 59C15.8664 59 9.41134 59.7644 3.21806 61.2099Z" fill="url(#paint2_radial)"/>
</g>
</mask>
<g mask="url(#mask1)">
<line x1="124.657" y1="56" x2="135.971" y2="67.3137" stroke="#FFFEEC" stroke-width="8" stroke-linecap="round" stroke-linejoin="round"/>
<line x1="115.613" y1="28.6267" x2="103.627" y2="43.387" stroke="#FFFEEC" stroke-width="8" stroke-linecap="round" stroke-linejoin="round"/>
<path d="M50 90L33 84.9911" stroke="#B69EAF" stroke-width="8" stroke-linecap="round" stroke-linejoin="round"/>
<line x1="122.287" y1="84.6038" x2="119.604" y2="100.684" stroke="#F9989E" stroke-width="8" stroke-linecap="round" stroke-linejoin="round"/>
<line x1="48.2462" y1="56.6064" x2="37.6064" y2="64.7243" stroke="#F9989E" stroke-width="8" stroke-linecap="round" stroke-linejoin="round"/>
</g>
<mask id="mask2" mask-type="alpha" maskUnits="userSpaceOnUse" x="0" y="-1" width="120" height="78">
<path d="M120 10.5C116.5 12 108.423 17.6049 106.5 28.5C105 37 108 43 109 46C106.336 47.1771 101.5 49.5 97 53.5C92.5 57.5 88.5 62.5 88.5 62.5C88.5 62.5 81 59 72.5 63C64 67 61 77 61 77C61 77 60.5 76.9 56.5 74.5C52.5073 72.1044 28.0889 61.0403 0.649712 70.4485C0.541837 70.5837 0.5 70.5 0.5 70.5C0.549914 70.4828 0.599818 70.4656 0.649712 70.4485C0.914767 70.1163 1.5785 68.4627 2.99992 61C4.99984 50.5 11.5 30 11.5 30L112.5 -0.5L120 10.5Z" fill="#EF5DA8"/>
</mask>
<g mask="url(#mask2)">
<mask id="path-12-inside-2" fill="white">
<path fill-rule="evenodd" clip-rule="evenodd" d="M111.89 6.11664C103.421 12.0487 97.8897 22.1161 97.9794 33.4957C98.122 51.5722 112.396 66.1145 129.861 65.9768C140.619 65.892 150.08 60.2561 155.725 51.7148C154.491 48.5742 153.076 45.5298 151.496 42.595C147.97 51.654 139.467 57.9008 129.798 57.9771C117.008 58.0779 106.089 47.3528 105.979 33.4326C105.896 22.9308 111.994 14.1502 120.485 10.4278C117.717 8.82163 114.847 7.38034 111.89 6.11664Z"/>
</mask>
<path fill-rule="evenodd" clip-rule="evenodd" d="M111.89 6.11664C103.421 12.0487 97.8897 22.1161 97.9794 33.4957C98.122 51.5722 112.396 66.1145 129.861 65.9768C140.619 65.892 150.08 60.2561 155.725 51.7148C154.491 48.5742 153.076 45.5298 151.496 42.595C147.97 51.654 139.467 57.9008 129.798 57.9771C117.008 58.0779 106.089 47.3528 105.979 33.4326C105.896 22.9308 111.994 14.1502 120.485 10.4278C117.717 8.82163 114.847 7.38034 111.89 6.11664Z" fill="#FCDDEC"/>
<path d="M111.89 6.11664L115.033 -1.24L110.943 -2.98757L107.3 -0.43567L111.89 6.11664ZM155.725 51.7148L162.399 56.1259L164.691 52.6578L163.171 48.7886L155.725 51.7148ZM151.496 42.595L158.539 38.8012L150.324 23.5493L144.04 39.6934L151.496 42.595ZM120.485 10.4278L123.697 17.7546L138.142 11.4224L124.5 3.50794L120.485 10.4278ZM107.3 -0.43567C96.7053 6.9858 89.8689 19.5118 89.9797 33.5587L105.979 33.4326C105.91 24.7204 110.138 17.1115 116.48 12.669L107.3 -0.43567ZM89.9797 33.5587C90.155 55.7917 107.783 74.1511 129.924 73.9766L129.798 57.9771C117.008 58.0779 106.089 47.3528 105.979 33.4326L89.9797 33.5587ZM129.924 73.9766C143.533 73.8692 155.391 66.7292 162.399 56.1259L149.051 47.3037C144.768 53.783 137.706 57.9147 129.798 57.9771L129.924 73.9766ZM144.452 46.3887C145.882 49.0437 147.162 51.7985 148.279 54.6409L163.171 48.7886C161.819 45.35 160.27 42.0159 158.539 38.8012L144.452 46.3887ZM129.861 65.9768C143.031 65.873 154.321 57.3923 158.951 45.4965L144.04 39.6934C141.619 45.9157 135.903 49.9287 129.735 49.9773L129.861 65.9768ZM97.9794 33.4957C98.1222 51.5986 112.421 66.1143 129.861 65.9768L129.735 49.9773C121.595 50.0415 114.056 43.1069 113.979 33.3695L97.9794 33.4957ZM117.273 3.10086C105.855 8.1066 97.8714 19.7919 97.9794 33.4957L113.979 33.3695C113.921 26.0697 118.133 20.1939 123.697 17.7546L117.273 3.10086ZM108.747 13.4733C111.402 14.608 113.981 15.903 116.471 17.3476L124.5 3.50794C121.453 1.74026 118.293 0.152739 115.033 -1.24L108.747 13.4733Z" fill="#EED4C8" mask="url(#path-12-inside-2)"/>
<path fill-rule="evenodd" clip-rule="evenodd" d="M110.793 154.261C89.7459 145.247 75 124.346 75 100C75 99.4148 75.0085 98.8315 75.0254 98.2504C72.1091 97.2928 69.4619 95.6474 67.3142 93.4693C67.1064 95.6181 67 97.7966 67 100C67 124.577 80.2326 146.063 99.9618 157.722C103.699 156.813 107.314 155.652 110.793 154.261ZM146.606 34.184C148.763 37.2696 150.713 40.5259 152.433 43.9366C146.634 42.0309 140.437 41 134 41C115.726 41 99.392 49.3081 88.5698 62.3532C85.8154 61.1688 82.761 60.6181 79.6241 60.8474C91.7909 43.9795 111.613 33 134 33C138.309 33 142.523 33.4068 146.606 34.184Z" fill="#EED4C8"/>
<path fill-rule="evenodd" clip-rule="evenodd" d="M98.7673 107.074C85.1624 78.6398 56.1247 59 22.5 59C10.1977 59 -1.49053 61.629 -12.0336 66.3558C-11.0166 68.8437 -9.88146 71.2609 -8.63621 73.6022C0.875262 69.3589 11.4121 67 22.5 67C52.8872 67 79.1363 84.7172 91.4808 110.385C93.9812 109.397 96.4118 108.291 98.7673 107.074Z" fill="#EED4C8"/>
</g>
<defs>
<radialGradient id="paint0_radial" cx="0" cy="0" r="1" gradientUnits="userSpaceOnUse" gradientTransform="translate(57.6447 35.0823) rotate(90) scale(35.0823 54.4256)">
<stop stop-color="#FBF3E2"/>
<stop offset="1" stop-color="#FFE6C1"/>
</radialGradient>
<radialGradient id="paint1_radial" cx="0" cy="0" r="1" gradientUnits="userSpaceOnUse" gradientTransform="translate(46.1006 31.3449) rotate(90) scale(37.3449 62.9271)">
<stop stop-color="#EDA5B2"/>
<stop offset="1" stop-color="#F3E2D8"/>
</radialGradient>
<radialGradient id="paint2_radial" cx="0" cy="0" r="1" gradientUnits="userSpaceOnUse" gradientTransform="translate(61.9166 36.4465) rotate(78.9045) scale(33.5881 62.3669)">
<stop stop-color="#EDA5B2"/>
<stop offset="1" stop-color="#F3E2D8"/>
</radialGradient>
</defs>
</svg>
