<svg width="160" height="160" viewBox="0 0 160 160" fill="none" xmlns="http://www.w3.org/2000/svg">
<mask id="mask0" mask-type="alpha" maskUnits="userSpaceOnUse" x="0" y="0" width="160" height="160">
<mask id="path-1-inside-1" mask-type="luminance" fill="white">
<path d="M160 80C160 124.183 124.183 160 80 160C35.8172 160 0 124.183 0 80C0 35.8172 35.8172 0 80 0C124.183 0 160 35.8172 160 80ZM60.8 80C60.8 90.6039 69.3961 99.2 80 99.2C90.6039 99.2 99.2 90.6039 99.2 80C99.2 69.3961 90.6039 60.8 80 60.8C69.3961 60.8 60.8 69.3961 60.8 80Z"/>
</mask>
<path d="M160 80C160 124.183 124.183 160 80 160C35.8172 160 0 124.183 0 80C0 35.8172 35.8172 0 80 0C124.183 0 160 35.8172 160 80ZM60.8 80C60.8 90.6039 69.3961 99.2 80 99.2C90.6039 99.2 99.2 90.6039 99.2 80C99.2 69.3961 90.6039 60.8 80 60.8C69.3961 60.8 60.8 69.3961 60.8 80Z" fill="#F3E2D8" stroke="#3F3D43" stroke-width="16" mask="url(#path-1-inside-1)"/>
</mask>
<g mask="url(#mask0)">
<path d="M160 80C160 124.183 124.183 160 80 160C35.8172 160 0 124.183 0 80C0 35.8172 35.8172 0 80 0C124.183 0 160 35.8172 160 80ZM60.8 80C60.8 90.6039 69.3961 99.2 80 99.2C90.6039 99.2 99.2 90.6039 99.2 80C99.2 69.3961 90.6039 60.8 80 60.8C69.3961 60.8 60.8 69.3961 60.8 80Z" fill="url(#paint0_radial)"/>
<g style="mix-blend-mode:multiply">
<path d="M142 74C142 118.183 106.183 154 62 154C17.8172 154 -18 118.183 -18 74C-18 29.8172 17.8172 -6 62 -6C106.183 -6 142 29.8172 142 74ZM42.8 74C42.8 84.6039 51.3961 93.2 62 93.2C72.6039 93.2 81.2 84.6039 81.2 74C81.2 63.3961 72.6039 54.8 62 54.8C51.3961 54.8 42.8 63.3961 42.8 74Z" fill="url(#paint1_radial)"/>
</g>
</g>
<mask id="path-4-inside-2" fill="white">
<path d="M160 80C160 124.183 124.183 160 80 160C35.8172 160 0 124.183 0 80C0 35.8172 35.8172 0 80 0C124.183 0 160 35.8172 160 80ZM60.8 80C60.8 90.6039 69.3961 99.2 80 99.2C90.6039 99.2 99.2 90.6039 99.2 80C99.2 69.3961 90.6039 60.8 80 60.8C69.3961 60.8 60.8 69.3961 60.8 80Z"/>
</mask>
<path d="M160 80C160 124.183 124.183 160 80 160C35.8172 160 0 124.183 0 80C0 35.8172 35.8172 0 80 0C124.183 0 160 35.8172 160 80ZM60.8 80C60.8 90.6039 69.3961 99.2 80 99.2C90.6039 99.2 99.2 90.6039 99.2 80C99.2 69.3961 90.6039 60.8 80 60.8C69.3961 60.8 60.8 69.3961 60.8 80Z" stroke="#3F3D43" stroke-width="16" mask="url(#path-4-inside-2)"/>
<line x1="123.657" y1="56" x2="134.971" y2="67.3137" stroke="#FFFEEC" stroke-width="8" stroke-linecap="round" stroke-linejoin="round"/>
<line x1="113.327" y1="116.097" x2="125.097" y2="121.673" stroke="#9182B2" stroke-width="8" stroke-linecap="round" stroke-linejoin="round"/>
<line x1="114.613" y1="28.6267" x2="102.627" y2="43.387" stroke="#FFFEEC" stroke-width="8" stroke-linecap="round" stroke-linejoin="round"/>
<line x1="27" y1="106" x2="44" y2="106" stroke="#FFFEEC" stroke-width="8" stroke-linecap="round" stroke-linejoin="round"/>
<line x1="86.677" y1="123.648" x2="73.6182" y2="135.294" stroke="#B69EAF" stroke-width="8" stroke-linecap="round" stroke-linejoin="round"/>
<path d="M49 90L32 84.9911" stroke="#B69EAF" stroke-width="8" stroke-linecap="round" stroke-linejoin="round"/>
<line x1="121.287" y1="84.6038" x2="118.604" y2="100.684" stroke="#F9989E" stroke-width="8" stroke-linecap="round" stroke-linejoin="round"/>
<line x1="47.2462" y1="56.6064" x2="36.6064" y2="64.7243" stroke="#F9989E" stroke-width="8" stroke-linecap="round" stroke-linejoin="round"/>
<defs>
<radialGradient id="paint0_radial" cx="0" cy="0" r="1" gradientUnits="userSpaceOnUse" gradientTransform="translate(80 80) rotate(90) scale(80)">
<stop stop-color="#FBF3E2"/>
<stop offset="1" stop-color="#FFE6C1"/>
</radialGradient>
<radialGradient id="paint1_radial" cx="0" cy="0" r="1" gradientUnits="userSpaceOnUse" gradientTransform="translate(62 74) rotate(90) scale(80)">
<stop stop-color="#EDA5B2"/>
<stop offset="1" stop-color="#F3E2D8"/>
</radialGradient>
</defs>
</svg>
