<svg width="745" height="744" viewBox="0 0 745 744" fill="none" xmlns="http://www.w3.org/2000/svg">
<path fill-rule="evenodd" clip-rule="evenodd" d="M414.5 361C419.5 356.5 424 358 426.5 360C429 362 431.5 365.5 432.5 369C433.5 372.5 432.5 378.5 430 381C427.5 383.5 421.5 384 417 382C412.5 380 411.5 375 411.5 370C411.5 366 413.5 362.333 414.5 361ZM299.5 383C308.5 381.5 312 389 313 391.5C314 394 315 400 310.5 404C307.055 407.063 302.5 406 300 404.5C297.5 403 293.5 399 294 391.5C294.4 385.5 297.833 383.333 299.5 383ZM269 421C271.4 422.6 274.167 424.167 275 424.5C273.5 426 271.7 429.8 274.5 431C277.3 432.2 279.333 428.833 280 427C280.333 427 281.6 427.2 284 428C284.829 428.276 285.657 428.705 286.475 429.128C288.619 430.238 290.691 431.31 292.5 429.5C295.495 426.505 292.563 424.37 290.516 422.88L290.515 422.879L290.514 422.878L290.514 422.878C290.334 422.747 290.161 422.621 290 422.5C288.4 421.3 285.667 420.333 284.5 420L286 417.5C286.667 416.5 287.6 414.2 286 413C284 411.5 282 413 281 414C280.459 414.541 279.735 415.646 279.169 416.511L279.169 416.511C278.897 416.925 278.662 417.284 278.5 417.5C278.333 417.333 277.3 416.7 274.5 415.5C273.399 415.028 272.498 414.355 271.687 413.748C269.921 412.427 268.577 411.423 266.5 413.5C264.5 415.5 266 419 269 421ZM256.5 406.5C255.833 404.333 253.9 401.3 251.5 406.5C250.667 409.167 249.5 416.2 251.5 423C254 431.5 263 444.5 274.5 454.5C286 464.5 317 476 325 477.5C333 479 338 479.5 356.5 479.5C372.743 479.5 394.767 475.646 411.743 472.675L411.745 472.675C414.104 472.262 416.365 471.866 418.5 471.5C436 468.5 461 461 477.5 443C494 425 497 410 495.5 408C494.3 406.4 493.333 407.333 493 408C490 413 482.7 424.8 477.5 432C471 441 457 453 433 459.5C412.091 465.163 366 475.5 331 470.5C315.371 468.267 291 459.431 276 446.5C264.4 436.5 257.667 415.5 256.5 406.5ZM467.5 382C467.5 381.667 467.8 380.5 469 378.5C469.143 378.262 469.276 378.034 469.403 377.816C470.618 375.738 471.285 374.595 474 375.5C476.869 376.456 475.594 379.989 474.582 382.792C474.36 383.409 474.15 383.989 474 384.5C474.425 384.819 474.995 385.12 475.599 385.438C477.832 386.617 480.519 388.036 478 391.5C476.545 393.5 473.5 392.5 471 391.5C470.5 393.333 467.98 397.747 466.5 397.5C463.5 397 462.5 395.5 463 393.5C463.4 391.9 464.5 389.167 465 388.5C464.333 388 463.444 387.6 462.556 387.2C460.778 386.4 459 385.6 459 384C459 381 461 380 462.5 380C463.7 380 466.333 381.167 467.5 382Z" fill="#3F3D43"/>
<path fill-rule="evenodd" clip-rule="evenodd" d="M340.5 435.5C337.89 431.324 337 427 338.5 420.5C341.5 412 352.8 407.6 366 404C385.842 398.588 412.5 399 415.5 414C418.5 429 410 439.5 407.5 442.5C405 445.5 395 453.5 385 454.5C375.647 455.435 372.418 454.621 365.494 452.875C365.015 452.755 364.518 452.629 364 452.5C352 449.5 343 439.5 340.5 435.5ZM394.008 407.244C389.664 406.478 385.109 406.489 381.23 406.498C380.811 406.499 380.401 406.5 380 406.5C367.988 407.301 355.655 410.667 349.164 416.085C354.337 416.695 365.341 416.985 371.5 416C381.234 414.442 386.825 411.268 391.105 408.837C392.135 408.252 393.09 407.71 394.008 407.244ZM399.042 408.579C395.665 412.442 380.916 423.5 370.5 423.5C368.013 423.5 365.766 423.523 363.68 423.544C356.498 423.618 351.237 423.672 344.761 422.7C342.933 432.56 358.956 445.571 378 446.5C398.5 447.5 413.775 426.5 408 416C405.927 412.231 402.718 409.954 399.042 408.579Z" fill="#3F3D43"/>
<path d="M283 294.5C282.2 297.3 282 299.667 282 300.5C281.167 302 279.2 305.6 278 308C276.5 311 269.5 333.5 267.5 341C265.9 347 265.333 355.5 265.5 358.5C264.5 358.5 262 359.5 259 361C255.922 362.539 253.833 364.5 253 365C253 364.333 252.3 362.6 251.5 361C250.7 359.4 249 358.167 248.5 358C247.5 357.667 246.7 357.8 245.5 359C244.3 360.2 245.5 363 246 364.5C246.444 365.831 248.5 370 250 377.5C250.888 381.94 250.912 385.501 251 389C251.5 409 242.912 416 244.5 429.5C246.1 443.1 252.667 450.833 256 453C258.5 454.5 262.3 456.1 263.5 454.5C264.7 452.9 263 450.167 262 449C259.333 446.333 253.6 439 252 431C250 421 256 411.5 257 401.5C257.205 399.449 257.5 395 257.5 388.5C257.5 383.3 256.5 376.667 256 374C257.333 373.167 260.7 371 263.5 369C267 366.5 271.5 364.5 273 362C274.5 359.5 273.5 353 276.5 338.5C278.9 326.9 281.167 319 282 316.5C282.5 320.833 283.7 330 284.5 334C285.5 339 289.5 356 300 355C308.4 354.2 309.5 339.333 309 331.5C310.667 333.833 315 339.2 319 342C324 345.5 333 349 337.5 350C342 351 352.5 351 356.5 350C360.5 349 363 347.5 365.5 346.5C368 345.5 370.5 345 376 342.5C381.5 340 387 334.5 389 332C390.6 330 391.667 324.167 392 321.5C392.667 322.833 394.3 325.9 395.5 327.5C397 329.5 404 335.5 407 337.5C410 339.5 414 343.5 418 345.5C422 347.5 425 348 430.5 347.5C436 347 439.5 336.5 440 335.5C440.5 334.5 443.5 330 444.5 328.5C445.3 327.3 446.5 324.667 447 323.5C448.5 325.833 451.8 331.4 453 335C454.5 339.5 456.5 341.5 462 348C467.5 354.5 475 358.5 479 360C482.2 361.2 486.667 361.167 488.5 361C491 366.167 496 378.3 496 385.5C496 394.5 493 399.5 492.5 405.5C492 411.5 492 419 494.5 422.5C497 426 501.5 428 504 425C506 422.6 503.833 420 502.5 419C502.167 417.333 501.4 413 501 409C500.5 404 503 397 504 394.5C505 392 506.5 385.5 504 374.5C501.5 363.5 496 356 494 354C492 352 487 351.5 483.5 351.5C480 351.5 471.5 344 467 339.5C462.5 335 458.5 325.5 456.5 322.5C454.9 320.1 451.833 316.5 450.5 315C449.667 314 447.3 312.3 444.5 313.5C441 315 442 317 440.5 320C439 323 437.5 326 435 329.5C432.5 333 432 339.5 426.5 340C421 340.5 414 332.5 411.5 331C409 329.5 404 325 401 321.5C398.6 318.7 396 312.333 395 309.5C394.5 308 392.7 305.1 389.5 305.5C386.3 305.9 385.833 309.667 386 311.5C386.167 314.5 386.1 321.5 382.5 327.5C378 335 373 336 367 338.5C357.496 342.46 351 343 344.5 343C337.981 343 328 339 323 335C318 331 313.5 324.5 311 320C309 316.4 306.5 311.5 305.5 309.5C304.833 308.667 303.5 306.5 301 308C299.153 309.108 299.167 312.333 299.5 314C300.5 319.333 302.5 331 302.5 335C302.5 340 302 346.5 299 348C296 349.5 290.5 334 289 322C288.095 314.757 288.167 300 288.5 293.5C288.5 290.5 287.5 288.5 286 289C284.5 289.5 284 291 283 294.5Z" fill="#3F3D43"/>
<path d="M248.5 236.5C255 232 262 229.5 262 227C262 224.5 257 225.5 257 225.5C255.833 225.333 251.9 225.9 245.5 229.5C237.5 234 224.247 245.024 212.5 261C200 278 191 308 189.5 321.5C186.389 349.5 190.5 376 189.5 380C188.5 384 183.5 390 178.5 398C173.5 406 169 421 170.5 434C172 447 186.5 462.5 192.5 468C196.5 471.667 198 474 199.5 479.5C201.542 486.989 194 502.5 192.5 511C191 519.5 191.5 540.5 202.5 550C213.5 559.5 221.5 560 225.5 559C228.7 558.2 228.833 554 228.5 552C233 556.5 248.5 563.231 267.5 562.5C280.5 562 287.5 558.5 294 553.5C299.2 549.5 298.833 542.167 298 539C300.5 539.833 307.4 541.5 315 541.5C322.6 541.5 325.5 539.833 326 539C374.667 537.333 475.3 533.4 488.5 531C501.7 528.6 509.333 515 511.5 508.5C514.5 511.333 521.7 517.2 526.5 518C532.5 519 539.5 516.5 548.5 512C557.5 507.5 568.5 501 569.5 498.5C570.3 496.5 570.167 494.667 570 494C571.667 495.333 577.8 497.9 589 497.5C603 497 601 482.5 594 475C587 467.5 579 469.5 573.5 467.5C568 465.5 562.5 457 561 450.5C559.8 445.3 562.513 439.938 563.5 435C565 427.5 567 410.5 566 392.5C564.808 371.033 557.929 350.5 551.5 343C545.5 336 533.5 331 530 325C528.465 322.369 527.784 315.859 527 312.5C524.667 302.5 519 280.7 511 263.5C501 242 476 215 442.5 199.5C409 184 367 178.5 335 185.5C309.4 191.1 285.333 206.5 276.5 213.5C272.667 216.167 265.9 222.2 269.5 225C273.1 227.8 276.5 224 279 221.5C288.5 213 309.5 201 326 197C343.821 192.68 362.207 183.769 411 198C459 212 474 230 493.5 254.5C513 279 516 323.5 521 331C529 343 537.241 345.216 542 349.5C547 354 548 356 553 372C558.429 389.372 557 426 554 435C552.09 440.731 548 453 557.5 465.5C567 478 576.5 477 582 478C587.5 479 589.5 482 590 486.5C590.5 491 582.803 490.268 577.5 488.5C571.5 486.5 568 482.5 566 482.5C564 482.5 563 483.5 562 485.5C561 487.5 562.5 492 561.5 494C560.5 496 558.5 496 553 499C546.761 502.403 530 510.5 526 508.5C522 506.5 516.5 501.5 515 500C513.5 498.5 515 497.5 508.5 497C502 496.5 501.774 520.95 485.5 522.5C475 523.5 470.5 525.578 460 526C421.636 527.54 326 530.5 326 530.5C326 530.5 321 532.5 314 532.5C304.945 532.5 296.5 528.5 294 528.5C291.5 528.5 289.5 529.5 288.5 533C287.5 536.5 290.5 543 289.5 545C288.5 547 282 553.5 266 553.5C248.5 553.5 236.5 548 230 545C226.25 543.269 223.5 544.88 222.5 547C221.5 549.12 222.25 551.75 221.5 552C220 552.5 214 551.5 207.5 544C201 536.5 198.5 521.5 200 512C201.5 502.5 208.5 488 206 478C203.5 468 195.5 461 188.5 453C181.5 445 178 439.5 177 428C176 416.5 183 401.5 186.5 396.5C190 391.5 193.5 384.5 194.5 380C195.5 375.5 195 374 194.5 356C194 338 196.5 319 201 303.5C205.5 288 216 269 220 264C224 259 229.499 253.501 232.5 250.5L232.5 250.5L232.5 250.5C235.5 247.5 242 241 248.5 236.5Z" fill="#3F3D43"/>
<path fill-rule="evenodd" clip-rule="evenodd" d="M438.5 239C436.606 240.624 436.323 243.712 436.065 246.521C435.847 248.902 435.647 251.082 434.5 252C432 254 429.875 249 429.5 245C429.125 241 430.779 230.099 442 230.5C456 231 469.094 241 468.5 250.5C467.813 261.5 461 268.5 458 271C455 273.5 448 274 445 271C443 269 441.5 266.5 441 263C440.781 261.467 440.082 259.549 439.366 257.584L439.366 257.584C438.447 255.064 437.5 252.466 437.5 250.5C437.5 247 438.5 245.5 440 246C441.26 246.42 441.462 247.545 441.79 249.375C441.853 249.724 441.92 250.099 442 250.5C442.355 252.273 443.966 255.05 445.23 257.23L445.23 257.23C445.749 258.125 446.209 258.918 446.5 259.5L448.5 263.5C449 264.5 451 265 451.5 265C456.525 265 461 254.5 461 250.5C461 246.5 457.5 244 453.5 241.5C449.5 239 442 236 438.5 239ZM417 246.5C413.5 245.5 406 258.5 410.5 264.5C413.5 268.5 420.691 267.885 423 266.5C425.5 265 427 263 426.5 257.5C426.1 253.1 420.5 247.5 417 246.5ZM418.629 254.435L418.63 254.437L418.631 254.438C418.747 254.616 418.869 254.804 419 255C419.197 255.296 419.421 255.592 419.647 255.892C420.567 257.112 421.535 258.395 421 260C420.167 262.5 417 262.5 415.5 261C414 259.5 414.5 256.5 415 255C415.4 253.8 416.167 252.833 416.5 252.5C417.369 252.5 417.86 253.254 418.629 254.435ZM212.5 302.5C209 295 216 284.5 219 284.5C219.5 284.333 221.25 284.5 222 285C222.217 285.145 222.413 285.268 222.592 285.381C223.655 286.052 224.144 286.361 225 288.5C225.462 289.656 226.139 290.384 226.831 291.13C227.636 291.997 228.462 292.887 229 294.5C230 297.5 229.5 302.5 226.5 305.5C223.24 308.76 216 310 212.5 302.5ZM218.5 300.5C217.5 299 218.162 291.919 219 291.5C219.557 291.221 220.037 292.199 220.59 293.326C220.869 293.893 221.165 294.498 221.5 295C223.117 297.426 223 299.5 222 300.5C221 301.5 219.5 302 218.5 300.5Z" fill="#3F3D43"/>
<path fill-rule="evenodd" clip-rule="evenodd" d="M381 476.5V480.5C381 481.7 381.333 483 381.5 483.5C376.333 484.667 363.4 486.8 353 486C342.6 485.2 333.333 484 330 483.5C328.5 483.333 325.1 483.3 323.5 484.5C321.9 485.7 321.833 487.333 322 488C314 487.667 294.2 486 279 482C263.8 478 245.667 466 238.5 460.5C238.833 457 239.3 449.3 238.5 446.5C237.5 443 235.5 439 232 438.5C228.5 438 226.5 439.5 223.5 444C221.1 447.6 220.5 449.5 220.5 450C217.833 446 211.3 438.2 206.5 439C201.7 439.8 201.167 447.333 201.5 451C199.5 450.667 195.3 451.3 194.5 456.5C193.7 461.7 197.167 466.667 199 468.5C197.167 469.5 193.7 472.4 194.5 476C195.3 479.6 200.833 482.833 203.5 484C201.833 486.667 199.5 493 203.5 497C207.5 501 219.5 497.333 225 495C230.333 499.333 247.3 509.2 272.5 514C297.7 518.8 316.333 518.667 322.5 518C322.5 523.167 322.9 534.3 324.5 537.5C326.315 541.13 328.13 541.466 330.319 541.871C330.542 541.912 330.769 541.954 331 542C333.5 542.5 338.5 543 348 543C355.6 543 360.5 542.333 362 542C362 543.667 362.1 548.3 362.5 553.5C362.9 558.7 364 564 364.5 566C365 567.167 366.8 569.3 370 568.5C373.2 567.7 374.333 565.5 374.5 564.5C375.833 564.5 378.7 564.2 379.5 563C380.3 561.8 380.5 560.167 380.5 559.5C380.667 559.667 381.2 559.9 382 559.5C382.8 559.1 383 558.667 383 558.5C383.167 558.667 383.8 559 385 559C386.2 559 388.167 558 389 557.5C388.5 558.667 387.6 561.3 388 562.5C388.5 564 390 565.5 392.5 565C394.167 564.667 399.167 561.889 404.833 558.741C407.667 557.167 410.667 555.5 413.5 554C420.3 550.4 429.667 546.5 433.5 545L418.5 554.5C417 555.5 414.7 558.2 417.5 561C420.3 563.8 425 561.167 427 559.5C429.167 558.333 434.5 555.4 438.5 553C442.5 550.6 446.167 549.333 447.5 549C444.438 550.667 438.25 554.7 438 557.5C437.688 561 440.5 563 443 562.5C445 562.1 448.167 560.333 449.5 559.5C448.833 560.333 448.1 562.4 450.5 564C452.9 565.6 464.5 560.333 470 557.5C470 558 470.4 559.2 472 560C474 561 483 560 485 558.5C486.6 557.3 486.333 555.667 486 555C486.667 555.667 488.5 557 490.5 557C493 557 494.5 555 494.5 551.5C494.5 548 494 542 493.5 540.5C493 539 490.5 532 487 524.5C484.2 518.5 481.5 513 480.5 511C482.167 510.333 486.7 508.2 491.5 505C492.069 504.621 492.615 504.26 493.138 503.914C498.132 500.612 501 498.716 501 496C501 493.6 497.667 488.333 496 486C501.833 482.167 515.6 471.1 524 457.5C532.4 443.9 539.5 423.167 542 414.5C545.167 415 552.8 415.7 558 414.5C564.5 413 572 407 568.5 399.5C568.033 398.5 564 397.5 561 399.5C561.485 398.894 562.198 398.23 562.967 397.514C565.372 395.274 568.318 392.531 566.5 389.5C564.1 385.5 558.5 387.833 556 389.5C557.833 386.667 560.2 380.3 555 377.5C549.8 374.7 546.833 377.333 546 379C547.167 374.5 548.053 366.5 542 366.5C534.87 366.5 531.506 374.333 529.759 378.399C529.668 378.61 529.582 378.811 529.5 379C526.333 375.5 519 369.4 515 373C510.53 377.023 512.454 381.845 513.984 385.68C514.165 386.135 514.341 386.576 514.5 387C515.7 390.2 517.333 392 518 392.5C517.667 397.333 514.8 410.7 506 425.5C497.2 440.3 484 455.333 478.5 461C477.667 459.5 475.2 456.7 472 457.5C468 458.5 465 460 461 462C459.327 462.836 458.091 463.673 456.964 464.436C455.395 465.498 454.036 466.418 452 467C448.5 468 445 469 441 470.5C437.8 471.7 432 474 429.5 475C428.667 475 426.3 474.9 423.5 474.5C420.7 474.1 419.333 474.333 419 474.5V469.5C415.167 469.167 405.6 468.9 398 470.5C390.4 472.1 383.5 475.167 381 476.5ZM488.351 479.11C488.882 479.207 489.418 479.306 490 479.5C493 480.5 514.5 459 523 441.5C527.212 432.828 529.705 425.016 531.575 419.158C533.478 413.195 534.734 409.257 536.5 408.5C538.305 407.727 540.906 408.017 543.826 408.342C546.57 408.648 549.593 408.984 552.5 408.5C558.5 407.5 565.5 405.5 564.5 403.5C564.088 402.676 562.554 403.269 560.62 404.017C557.863 405.084 554.293 406.465 552 404.5C549.964 402.755 552.003 400.737 555 398.5C555.436 398.174 555.913 397.85 556.397 397.52C558.305 396.219 560.333 394.836 560.5 393C560.731 390.461 553 393.5 551 395.5C550.462 396.038 549.933 396.601 549.427 397.14C547.991 398.668 546.739 400 546 400C545 400 543.5 399 543.5 397.5C543.5 395.625 545.187 393.75 546.875 391.875L546.875 391.875C547.437 391.25 548 390.625 548.5 390C549.125 389.218 549.817 388.56 550.436 387.971C551.797 386.676 552.809 385.713 552 384.5C551 383 547.5 385.5 545 387.5C544.027 388.278 543.309 389.25 542.637 390.16C541.582 391.588 540.639 392.863 539 393C533 393.5 536.812 386 539 383C541.188 380 541.488 375.314 540 375.5C538.183 375.727 537.631 378.798 536.995 382.337C536.23 386.587 535.345 391.513 532 393C529.052 394.31 528.464 391.542 527.847 388.634C527.523 387.104 527.19 385.534 526.5 384.5C524.5 381.5 521 379.5 520.5 380.5C519.951 381.598 520.9 382.799 522.02 384.217L522.021 384.218L522.022 384.219C522.344 384.627 522.681 385.053 523 385.5C523.299 385.919 523.56 386.249 523.796 386.548C524.687 387.675 525.209 388.337 526 391.5C527 395.5 524.005 411.718 514.5 429C507.311 442.071 495.211 454.287 487.689 461.881C483.701 465.907 481 468.634 481 469.5C481 471.5 481 472.5 482.5 475.5C485.142 478.519 486.717 478.809 488.351 479.11ZM323 509C325 508 326.5 505 326 499.5C325.667 498.167 324.6 495.3 323 494.5C322.462 494.231 321.415 494.252 319.53 494.289C314.413 494.391 303.113 494.615 279 489.5C249.851 483.317 239.427 473.232 236.013 469.929L236.013 469.929L236.013 469.929C235.562 469.493 235.233 469.175 235 469C234.684 468.763 234.33 468.513 233.958 468.251L233.958 468.25L233.957 468.25C231.98 466.854 229.5 465.104 229.5 463C229.5 460.5 229.5 458.5 230.5 455C231.3 452.2 230.833 448.833 230.5 447.5C230 446.5 229 449 228.5 451.5C228.292 452.541 227.824 453.929 227.348 455.339C226.681 457.314 226 459.333 226 460.5C226 462.5 225.5 467 220.5 465.5C217.471 464.591 217.011 462.581 216.452 460.137C216.088 458.547 215.682 456.774 214.5 455C212.1 451.4 210.5 450.167 210 450C208.5 449 209.5 453.5 211.5 456.5C211.82 456.98 212.153 457.435 212.477 457.877C214.172 460.192 215.6 462.141 213.5 465.5C211.703 468.376 207.58 464.275 204.847 461.556L204.847 461.556L204.847 461.556L204.847 461.555C203.778 460.492 202.922 459.641 202.5 459.5C201.3 459.1 203 461.667 204 463C204.881 464.233 206.195 465.156 207.442 466.03C209.734 467.639 211.795 469.085 210.5 472C209.35 474.588 207.208 474.53 205.69 474.489C204.568 474.459 203.787 474.438 204 475.5C204.219 476.594 206.447 477.496 208.927 478.5C212.115 479.791 215.719 481.25 216 483.5C216.252 485.517 214.089 486.263 212.267 486.891C210.475 487.509 209.013 488.013 210.5 489.5C212.266 491.266 216.803 489.221 220.747 487.443C223.504 486.201 225.972 485.089 227 485.5C228.183 485.973 228.694 486.446 229.435 487.132C230.259 487.894 231.366 488.92 234 490.5C239 493.5 252 499.5 276.5 506C296.1 511.2 315.667 510.167 323 509ZM410.5 472C409.5 470.5 408.5 470 398.5 472C395.5 472.667 389.3 474.4 388.5 476C388.079 476.843 388.812 478.573 389.651 480.556C390.804 483.278 392.157 486.475 391 488.5C389.781 490.634 387.818 491.281 386.585 491.687C385.795 491.948 385.305 492.11 385.5 492.5C386 493.5 392 498 402 496C412 494 419.5 483.5 419 482.5C418.808 482.117 418.543 482.174 418.064 482.278C417.292 482.446 415.967 482.733 413.5 481.5C410.833 480.167 410.833 477.056 410.833 474.685C410.833 473.5 410.833 472.5 410.5 472Z" fill="#3F3D43"/>
<path fill-rule="evenodd" clip-rule="evenodd" d="M381 476.5V480.5C381 481.7 381.333 483 381.5 483.5C376.333 484.667 363.4 486.8 353 486C342.6 485.2 333.333 484 330 483.5C328.5 483.333 325.1 483.3 323.5 484.5C321.9 485.7 321.833 487.333 322 488C322 488 321.134 497.154 321.5 503C322 511 322.5 518 322.5 518C322.5 523.167 322.9 534.3 324.5 537.5C326.315 541.13 328.13 541.466 330.319 541.871C330.542 541.912 330.769 541.954 331 542C333.5 542.5 338.5 543 348 543C355.6 543 360.5 542.333 362 542C362 543.667 362.1 548.3 362.5 553.5C362.9 558.7 364 564 364.5 566C365 567.167 366.8 569.3 370 568.5C373.2 567.7 374.333 565.5 374.5 564.5C375.833 564.5 378.7 564.2 379.5 563C380.3 561.8 380.5 560.167 380.5 559.5C380.667 559.667 381.2 559.9 382 559.5C382.8 559.1 383 558.667 383 558.5C383.167 558.667 383.8 559 385 559C386.2 559 388.167 558 389 557.5C388.5 558.667 387.6 561.3 388 562.5C388.5 564 390 565.5 392.5 565C394.167 564.667 399.167 561.889 404.833 558.741C407.667 557.167 410.667 555.5 413.5 554C420.3 550.4 429.667 546.5 433.5 545L418.5 554.5C417 555.5 414.7 558.2 417.5 561C420.3 563.8 425 561.167 427 559.5C429.167 558.333 434.5 555.4 438.5 553C442.5 550.6 446.167 549.333 447.5 549C444.437 550.667 438.25 554.7 438 557.5C437.687 561 440.5 563 443 562.5C445 562.1 448.167 560.333 449.5 559.5C448.833 560.333 448.1 562.4 450.5 564C452.9 565.6 464.5 560.333 470 557.5C470 558 470.4 559.2 472 560C474 561 483 560 485 558.5C486.6 557.3 486.333 555.667 486 555C486.667 555.667 488.5 557 490.5 557C493 557 494.5 555 494.5 551.5C494.5 548 494 542 493.5 540.5C493 539 490.5 532 487 524.5C484.2 518.5 481.5 513 480.5 511C482.167 510.333 486.7 508.2 491.5 505C492.069 504.621 492.615 504.26 493.138 503.914C498.132 500.612 501 498.716 501 496C501 493.6 497.667 488.333 496 486L478.5 461C477.667 459.5 475.2 456.7 472 457.5C468 458.5 465 460 461 462C459.327 462.836 458.091 463.673 456.964 464.436C455.395 465.498 454.036 466.418 452 467C448.5 468 445 469 441 470.5C437.8 471.7 432 474 429.5 475C428.667 475 426.3 474.9 423.5 474.5C420.7 474.1 419.333 474.333 419 474.5V469.5C415.167 469.167 405.6 468.9 398 470.5C390.4 472.1 383.5 475.167 381 476.5ZM398.5 472C408.5 470 409.5 470.5 410.5 472C410.833 472.5 410.833 473.5 410.833 474.685C410.833 477.056 410.833 480.167 413.5 481.5C415.966 482.733 417.292 482.446 418.064 482.278C418.543 482.174 418.808 482.117 419 482.5C419.5 483.5 412 494 402 496C392 498 386 493.5 385.5 492.5C385.305 492.11 385.795 491.948 386.585 491.687C387.818 491.281 389.781 490.634 391 488.5C392.157 486.475 390.803 483.278 389.651 480.556C388.811 478.573 388.079 476.843 388.5 476C389.3 474.4 395.5 472.667 398.5 472Z" fill="#3F3D43"/>
</svg>
