<svg width="160" height="160" viewBox="0 0 160 160" fill="none" xmlns="http://www.w3.org/2000/svg">
<mask id="mask0" mask-type="alpha" maskUnits="userSpaceOnUse" x="0" y="0" width="160" height="160">
<mask id="path-1-inside-1" mask-type="luminance" fill="white">
<path d="M160 80C160 124.183 124.183 160 80 160C35.8172 160 0 124.183 0 80C0 35.8172 35.8172 0 80 0C124.183 0 160 35.8172 160 80ZM60.8 80C60.8 90.6039 69.3961 99.2 80 99.2C90.6039 99.2 99.2 90.6039 99.2 80C99.2 69.3961 90.6039 60.8 80 60.8C69.3961 60.8 60.8 69.3961 60.8 80Z"/>
</mask>
<path d="M160 80C160 124.183 124.183 160 80 160C35.8172 160 0 124.183 0 80C0 35.8172 35.8172 0 80 0C124.183 0 160 35.8172 160 80ZM60.8 80C60.8 90.6039 69.3961 99.2 80 99.2C90.6039 99.2 99.2 90.6039 99.2 80C99.2 69.3961 90.6039 60.8 80 60.8C69.3961 60.8 60.8 69.3961 60.8 80Z" fill="#F3E2D8" stroke="#3F3D43" stroke-width="16" mask="url(#path-1-inside-1)"/>
</mask>
<g mask="url(#mask0)">
<path fill-rule="evenodd" clip-rule="evenodd" d="M80 160C124.183 160 160 124.183 160 80C160 69.5706 158.004 59.6074 154.374 50.4713C148.684 58.6482 139.217 64 128.5 64C111.103 64 97 49.897 97 32.5C97 21.5483 102.589 11.9019 111.07 6.25751C101.518 2.22778 91.019 0 80 0C35.8172 0 0 35.8172 0 80C0 124.183 35.8172 160 80 160ZM80 99.2C69.3961 99.2 60.8 90.6039 60.8 80C60.8 69.3961 69.3961 60.8 80 60.8C90.6039 60.8 99.2 69.3961 99.2 80C99.2 90.6039 90.6039 99.2 80 99.2Z" fill="url(#paint0_radial)"/>
<g style="mix-blend-mode:multiply">
<path fill-rule="evenodd" clip-rule="evenodd" d="M62 154C106.183 154 142 118.183 142 74C142 69.7183 141.664 65.5151 141.016 61.4155C137.18 63.0783 132.947 64 128.5 64C111.103 64 97 49.897 97 32.5C97 22.9186 101.278 14.3364 108.028 8.55902C95.0106 -0.613299 79.1344 -6 62 -6C17.8172 -6 -18 29.8172 -18 74C-18 118.183 17.8172 154 62 154ZM62 93.2C51.3961 93.2 42.8 84.6039 42.8 74C42.8 63.3961 51.3961 54.8 62 54.8C72.6039 54.8 81.2 63.3961 81.2 74C81.2 84.6039 72.6039 93.2 62 93.2Z" fill="url(#paint1_radial)"/>
</g>
</g>
<path fill-rule="evenodd" clip-rule="evenodd" d="M152 80C152 119.765 119.765 152 80 152C40.2355 152 8 119.765 8 80C8 40.2355 40.2355 8 80 8C88.5589 8 96.7691 9.49342 104.384 12.2339C106.314 9.93921 108.566 7.92394 111.07 6.25751C101.518 2.22778 91.019 0 80 0C35.8172 0 0 35.8172 0 80C0 124.183 35.8172 160 80 160C124.183 160 160 124.183 160 80C160 69.5706 158.004 59.6074 154.374 50.4713C152.657 52.9391 150.595 55.1496 148.259 57.0333C150.685 64.2462 152 71.9696 152 80ZM52.8 80C52.8 95.0221 64.9779 107.2 80 107.2C95.0221 107.2 107.2 95.0221 107.2 80C107.2 64.9779 95.0221 52.8 80 52.8C64.9779 52.8 52.8 64.9779 52.8 80ZM60.8 80C60.8 90.6039 69.3961 99.2 80 99.2C90.6039 99.2 99.2 90.6039 99.2 80C99.2 69.3961 90.6039 60.8 80 60.8C69.3961 60.8 60.8 69.3961 60.8 80Z" fill="#3F3D43"/>
<mask id="mask1" mask-type="alpha" maskUnits="userSpaceOnUse" x="-14" y="-14" width="188" height="188">
<g style="mix-blend-mode:multiply">
<path fill-rule="evenodd" clip-rule="evenodd" d="M95.3956 158.505C138.752 150.002 167.007 107.961 158.505 64.6044C157.07 57.2915 154.682 50.4082 151.494 44.0585C148.179 50.6682 141.948 55.727 134.13 57.2602C120.72 59.8901 107.717 51.1509 105.087 37.7407C102.819 26.176 109.006 14.9141 119.353 10.3467C103.321 1.2792 84.0957 -2.32708 64.6044 1.49539C21.2474 9.99815 -7.00742 52.0387 1.49533 95.3956C9.99809 138.753 52.0387 167.007 95.3956 158.505ZM83.6949 98.8411C73.2892 100.882 63.1995 94.1006 61.1588 83.695C59.1182 73.2893 65.8994 63.1996 76.305 61.1589C86.7107 59.1182 96.8004 65.8994 98.8411 76.3051C100.882 86.7107 94.1006 96.8005 83.6949 98.8411Z" fill="url(#paint2_radial)"/>
</g>
</mask>
<g mask="url(#mask1)">
<line x1="123.657" y1="56" x2="134.971" y2="67.3137" stroke="#FFFEEC" stroke-width="8" stroke-linecap="round" stroke-linejoin="round"/>
<line x1="113.327" y1="116.097" x2="125.097" y2="121.673" stroke="#9182B2" stroke-width="8" stroke-linecap="round" stroke-linejoin="round"/>
<line x1="114.613" y1="28.6267" x2="102.627" y2="43.387" stroke="#FFFEEC" stroke-width="8" stroke-linecap="round" stroke-linejoin="round"/>
<line x1="27" y1="106" x2="44" y2="106" stroke="#FFFEEC" stroke-width="8" stroke-linecap="round" stroke-linejoin="round"/>
<line x1="86.677" y1="123.648" x2="73.6182" y2="135.294" stroke="#B69EAF" stroke-width="8" stroke-linecap="round" stroke-linejoin="round"/>
<path d="M49 90L32 84.9911" stroke="#B69EAF" stroke-width="8" stroke-linecap="round" stroke-linejoin="round"/>
<line x1="121.287" y1="84.6038" x2="118.604" y2="100.684" stroke="#F9989E" stroke-width="8" stroke-linecap="round" stroke-linejoin="round"/>
<line x1="47.2462" y1="56.6064" x2="36.6064" y2="64.7243" stroke="#F9989E" stroke-width="8" stroke-linecap="round" stroke-linejoin="round"/>
<mask id="path-14-inside-2" fill="white">
<path fill-rule="evenodd" clip-rule="evenodd" d="M110.89 6.11668C102.421 12.0487 96.8896 22.1161 96.9793 33.4957C97.1218 51.5723 111.396 66.1146 128.861 65.9768C139.619 65.892 149.079 60.2562 154.725 51.7148C153.491 48.5743 152.076 45.5298 150.496 42.595C146.97 51.6541 138.467 57.9008 128.797 57.9771C116.008 58.078 105.089 47.3528 104.979 33.4326C104.896 22.9308 110.994 14.1503 119.485 10.4278C116.717 8.82167 113.847 7.38039 110.89 6.11668Z"/>
</mask>
<path fill-rule="evenodd" clip-rule="evenodd" d="M110.89 6.11668C102.421 12.0487 96.8896 22.1161 96.9793 33.4957C97.1218 51.5723 111.396 66.1146 128.861 65.9768C139.619 65.892 149.079 60.2562 154.725 51.7148C153.491 48.5743 152.076 45.5298 150.496 42.595C146.97 51.6541 138.467 57.9008 128.797 57.9771C116.008 58.078 105.089 47.3528 104.979 33.4326C104.896 22.9308 110.994 14.1503 119.485 10.4278C116.717 8.82167 113.847 7.38039 110.89 6.11668Z" fill="#FCDDEC"/>
<path d="M110.89 6.11668L114.033 -1.23996L109.943 -2.98753L106.3 -0.435629L110.89 6.11668ZM154.725 51.7148L161.399 56.1259L163.691 52.6578L162.17 48.7887L154.725 51.7148ZM150.496 42.595L157.539 38.8012L149.323 23.5493L143.04 39.6935L150.496 42.595ZM119.485 10.4278L122.697 17.7547L137.142 11.4224L123.5 3.50798L119.485 10.4278ZM106.3 -0.435629C95.7052 6.98584 88.8688 19.5119 88.9796 33.5588L104.979 33.4326C104.91 24.7204 109.138 17.1116 115.48 12.669L106.3 -0.435629ZM88.9796 33.5588C89.1549 55.7917 106.783 74.1512 128.924 73.9766L128.797 57.9771C116.008 58.078 105.089 47.3528 104.979 33.4326L88.9796 33.5588ZM128.924 73.9766C142.533 73.8693 154.391 66.7292 161.399 56.1259L148.051 47.3037C143.768 53.7831 136.706 57.9147 128.797 57.9771L128.924 73.9766ZM143.452 46.3888C144.882 49.0437 146.162 51.7985 147.279 54.641L162.17 48.7887C160.819 45.35 159.27 42.0159 157.539 38.8012L143.452 46.3888ZM128.861 65.9768C142.031 65.873 153.321 57.3923 157.951 45.4965L143.04 39.6935C140.619 45.9158 134.903 49.9287 128.734 49.9773L128.861 65.9768ZM96.9793 33.4957C97.1221 51.5986 111.421 66.1144 128.861 65.9768L128.734 49.9773C120.595 50.0415 113.056 43.107 112.979 33.3695L96.9793 33.4957ZM116.273 3.1009C104.854 8.10664 96.8712 19.7919 96.9793 33.4957L112.979 33.3695C112.921 26.0697 117.133 20.1939 122.697 17.7547L116.273 3.1009ZM107.746 13.4733C110.402 14.608 112.981 15.903 115.471 17.3476L123.5 3.50798C120.453 1.74031 117.292 0.15278 114.033 -1.23996L107.746 13.4733Z" fill="#EED4C8" mask="url(#path-14-inside-2)"/>
</g>
<defs>
<radialGradient id="paint0_radial" cx="0" cy="0" r="1" gradientUnits="userSpaceOnUse" gradientTransform="translate(80 80) rotate(90) scale(80)">
<stop stop-color="#FBF3E2"/>
<stop offset="1" stop-color="#FFE6C1"/>
</radialGradient>
<radialGradient id="paint1_radial" cx="0" cy="0" r="1" gradientUnits="userSpaceOnUse" gradientTransform="translate(62 74) rotate(90) scale(80)">
<stop stop-color="#EDA5B2"/>
<stop offset="1" stop-color="#F3E2D8"/>
</radialGradient>
<radialGradient id="paint2_radial" cx="0" cy="0" r="1" gradientUnits="userSpaceOnUse" gradientTransform="translate(80 80) rotate(78.9045) scale(80)">
<stop stop-color="#EDA5B2"/>
<stop offset="1" stop-color="#F3E2D8"/>
</radialGradient>
</defs>
</svg>
